<svg xmlns="http://www.w3.org/2000/svg" viewBox="0 0 760 400" role="img" aria-labelledby="title desc">
<title id="title">목포 항만 자료 삽화</title><desc id="desc">목포의 항만과 개항을 확인하기 위한 수업용 삽화. 실제 지형 축척도 아님.</desc>
<rect width="760" height="400" fill="#f2eee4"/>
<path d="M0 280 C155 240 260 256 350 220 C448 181 529 215 610 174 C672 143 712 150 760 132 L760 400 L0 400Z" fill="#c9dcdf"/>
<path d="M0 278 C155 238 260 254 350 218 C448 179 529 213 610 172 C672 141 712 148 760 130" fill="none" stroke="#5c7378" stroke-width="4"/>
<g fill="#786858"><rect x="470" y="180" width="12" height="104"/><rect x="500" y="160" width="12" height="124"/><path d="M430 285 H560 L535 315 H450Z"/></g>
<g fill="#374a54"><path d="M190 250 h125 l-18 38 h-89z"/><rect x="238" y="218" width="42" height="34"/><path d="M258 218 v-65" stroke="#374a54" stroke-width="7"/><path d="M258 160 l70 42" stroke="#374a54" stroke-width="5"/></g>
<g font-family="system-ui, Noto Sans KR" fill="#20242b"><text x="24" y="42" font-size="21" font-weight="900" fill="#8e2f2b">1897.10.01 목포 개항</text><text x="24" y="72" font-size="16" fill="#6f665c">개항·항만의 시점 관계를 읽기 위한 수업용 삽화</text><text x="578" y="322" font-size="20" font-weight="800">항만</text></g>
</svg>
